HIERARCHY
ROOT pelvis
{
  OFFSET 0 100 0
  CHANNELS 6 Xposition Yposition Zposition Zrotation Xrotation Yrotation
  JOINT pelvis_right_femur
  {
    OFFSET -10.78128 -3.44521 -0.5502486
    CHANNELS 3 Zrotation Xrotation Yrotation
    JOINT right_femur_tibia
    {
      OFFSET -0.8047443 -44.0398 -0.1307829
      CHANNELS 3 Zrotation Xrotation Yrotation
      JOINT right_tibia_foot
      {
        OFFSET 3.006224 -47.83518 -5
        CHANNELS 3 Zrotation Xrotation Yrotation
        End Site
        {
          OFFSET 0 -5 15
        }
      }
    }
  }
  JOINT pelvis_left_femur
  {
    OFFSET 10.78128 -3.44521 -0.5502486
    CHANNELS 3 Zrotation Xrotation Yrotation
    JOINT left_femur_tibia
    {
      OFFSET 0.8047443 -44.0398 -0.1307829
      CHANNELS 3 Zrotation Xrotation Yrotation
      JOINT left_tibia_foot
      {
        OFFSET -4.370144 -48.10324 -4.275266
        CHANNELS 3 Zrotation Xrotation Yrotation
        End Site
        {
          OFFSET 0 -5 15
        }
      }
    }
  }
  JOINT pelvis_spine1
  {
    OFFSET 0 6.468898 -3.129235
    CHANNELS 3 Zrotation Xrotation Yrotation
    JOINT spine1
    {
      OFFSET 0 23.15396 4.99043
      CHANNELS 3 Zrotation Xrotation Yrotation
      JOINT spine2
      {
        OFFSET 0 20.79997 -5.064912
        CHANNELS 3 Zrotation Xrotation Yrotation
        JOINT neck
        {
          OFFSET 0 14.38658 9.616178
          CHANNELS 3 Zrotation Xrotation Yrotation
          End Site
          {
            OFFSET 0 20 0
          }
        }
      }
      JOINT right_manubrium
      {
        OFFSET -5.722621 16.35077 3.967754
        CHANNELS 3 Zrotation Xrotation Yrotation
        JOINT right_clavicle
        {
          OFFSET -13.16364 1.694482 -4.693211
          CHANNELS 3 Zrotation Xrotation Yrotation
          JOINT right_humerus
          {
            OFFSET -28.5034 -0.3100689 -2.792744
            CHANNELS 3 Zrotation Xrotation Yrotation
            JOINT right_radius
            {
              OFFSET -25.15693 0.02248979 -1.271978
              CHANNELS 3 Zrotation Xrotation Yrotation
              End Site
              {
                OFFSET -15 0 0
              }
            }
          }
        }
      }
      JOINT left_manubrium
      {
        OFFSET 5.722621 16.35077 3.967754
        CHANNELS 3 Zrotation Xrotation Yrotation
        JOINT left_clavicle
        {
          OFFSET 13.16364 1.694482 -4.693211
          CHANNELS 3 Zrotation Xrotation Yrotation
          JOINT left_humerus
          {
            OFFSET 29.39168 -1.063119 -2.237045
            CHANNELS 3 Zrotation Xrotation Yrotation
            JOINT left_radius
            {
              OFFSET 24.59957 -0.9528479 0.9047498
              CHANNELS 3 Zrotation Xrotation Yrotation
              End Site
              {
                OFFSET 15 -0 -0
              }
            }
          }
        }
      }
    }
  }
}
MOTION
Frames: 19
Frame Time: 0.0416666666667
0 103.5113 0 1.050346 -2.791106 0.01684854 2.018862 -12.07886 6.543711 -0 40.0933 -0 -8.170679 -14.09243 -2.702284 -6.644736 10.99134 -23.39859 -0 6.198022 -0 3.124872 -17.75224 23.96473 -0.4333052 -1.470616 3.662649 0.6539015 7.038196 -7.513481 1.646432 22.23924 8.240967 5.115455 -23.13277 9.210095 5.288519 -18.48844 10.19858 89.80835 36.1265 -24.48718 -0 0 16.02288 -5.542735 8.619856 1.4939 6.79554 -20.78082 -2.965812 -101.6358 42.97391 29.70051 0 0 -25.81142 -9.935404 18.14835 29.25915
0.229148 104.7677 1.207068 0.2988907 -1.814213 -0.06509633 3.427893 -14.38477 7.779393 -0 41.43373 -0 -8.061551 -13.71902 -3.271638 -6.169885 10.71285 -23.5661 -0 6.717953 -0 1.63739 -18.93961 23.68143 -0.4658974 -1.470415 3.63425 0.7205953 7.066729 -7.553502 1.623591 22.1821 8.248578 5.106381 -23.15715 9.189775 5.369853 -18.39805 10.23541 89.71559 36.14214 -24.47866 -0 0 15.87584 -5.665784 8.734004 1.658674 6.789794 -20.79237 -2.959731 -101.223 42.72459 29.24889 0 0 -25.85136 -9.688633 18.02736 28.925
0.4329143 105.6536 3.059822 -0.06207316 -0.9094652 0.07957545 3.77229 -20.3864 6.770141 -0 36.87641 -0 -7.267902 -11.09271 -3.88393 -5.718478 11.75721 -21.35573 -0 5.730614 -0 0.634843 -20.94807 21.36505 -1.174697 -1.299413 3.138589 1.922357 7.177111 -7.948446 1.296571 22.05834 7.946394 4.532035 -23.81103 8.803602 6.293423 -17.24882 10.82491 87.93927 36.02465 -23.4092 -0 0 13.8825 -7.020588 9.553037 4.020375 5.892951 -20.15778 -2.788219 -97.28666 39.6652 24.81398 0 0 -24.54302 -7.378748 16.66904 25.28552
0.6186267 106.2855 5.250672 -0.1648674 -0.284385 0.3069975 4.0142 -23.65399 6.5553 -0 33.59403 -0 -6.392046 -10.56895 -4.327074 -5.565794 12.52876 -20.46649 -0 5.324353 -0 0.6000562 -21.92921 20.50477 -1.22203 -1.240786 3.101175 2.045254 7.298974 -8.037688 1.213108 21.94558 7.958433 4.513257 -23.77408 8.677867 6.374483 -17.05102 10.92532 87.85799 36.05584 -23.38382 -0 0 13.45885 -7.687083 9.936875 4.517009 5.832192 -20.25559 -2.838622 -96.28485 38.77731 23.76411 0 0 -24.58399 -6.832574 16.30092 24.46796
0.789003 106.6887 7.796508 -0.2084152 0.4418107 0.588143 4.30046 -26.69444 6.478224 -0 29.79795 -0 -5.494219 -10.24368 -4.653157 -5.50364 13.39226 -19.78719 -0 5.245835 -0 1.056099 -22.65623 19.97496 -1.267333 -1.225829 3.072543 2.163768 7.402257 -8.123699 1.163377 21.80363 7.971662 4.497826 -23.79804 8.619569 6.498508 -16.88325 11.00752 87.72713 36.04558 -23.38028 -0 0 13.14614 -8.020483 10.16604 4.875903 5.82534 -20.32412 -2.847159 -95.48722 38.05245 22.89426 0 0 -24.70484 -6.246753 15.95751 23.66932
0.9500518 106.947 10.67467 -0.3080225 1.21558 0.9110333 4.726574 -29.27001 6.473969 -0 26.43664 -0 -4.968162 -9.707223 -4.728903 -5.466912 14.12993 -19.34367 -0 5.651903 -0 1.621475 -23.09107 19.62991 -1.243923 -1.21363 3.073427 2.198162 7.556419 -8.221249 1.117437 21.59041 8.041262 4.556162 -23.722 8.558442 6.5711 -16.73723 11.06052 87.78736 36.06963 -23.55418 -0 0 12.84418 -8.507495 10.51748 5.189968 5.9326 -20.54636 -2.901752 -94.58808 37.26487 21.93337 0 0 -25.11324 -5.637499 15.57353 22.88798
1.102233 107.143 13.90393 -0.5591224 2.073107 1.283116 5.356888 -31.73194 6.41258 -0 23.40015 -0 -4.909505 -8.749024 -4.551564 -5.363796 14.77933 -19.02764 -0 6.662873 -0 1.852584 -23.40373 19.10673 -1.219829 -1.195955 3.072975 2.234455 7.72043 -8.324207 1.067296 21.37247 8.110383 4.612604 -23.6335 8.487365 6.630459 -16.58189 11.11479 87.86669 36.08224 -23.73775 -0 0 12.51095 -9.0614 10.89221 5.536465 6.038267 -20.78514 -2.964469 -93.65123 36.4027 20.92569 0 0 -25.53981 -5.007108 15.15101 22.06869
1.242065 107.3458 17.5196 -0.9815008 2.907102 1.714484 6.091482 -33.94162 6.117286 -0 20.66414 -0 -5.377109 -7.38837 -4.123009 -5.134113 15.34032 -18.75437 -0 8.430962 -0 1.279989 -23.61796 18.07689 -1.187909 -1.162561 3.073235 2.26349 7.911711 -8.437005 1.005423 21.14321 8.185197 4.674085 -23.49897 8.388636 6.660376 -16.4084 11.17184 88.00126 36.0846 -23.95023 -0 0 12.11511 -9.799779 11.34748 5.956257 6.1452 -21.07107 -3.05358 -92.6068 35.38743 19.80159 0 0 -26.00781 -4.346148 14.65851 21.18855
1.364221 107.6241 21.57492 -1.564308 3.605296 2.203695 6.81649 -35.56494 5.452703 -0 18.15642 -0 -6.352315 -5.820874 -3.451716 -4.73756 15.75306 -18.44247 -0 11.25534 -0 -0.4976296 -23.59215 16.26463 -1.160021 -1.102947 3.072008 2.28842 8.119916 -8.546755 0.9305532 20.94065 8.248732 4.722265 -23.31389 8.253713 6.650446 -16.2246 11.23444 88.16999 36.06359 -24.1403 -0 0 11.67067 -10.74303 11.86734 6.460525 6.213495 -21.36663 -3.171097 -91.53315 34.25868 18.64849 0 0 -26.40959 -3.731339 14.12424 20.32678
1.465326 108.0546 26.11326 -2.232822 3.984754 2.713048 7.400963 -35.87276 4.416589 -0 16.0701 -0 -7.645897 -4.510713 -2.644086 -4.173136 15.7882 -17.97286 -0 15.51001 -0 -3.672488 -22.89629 13.60513 -1.14474 -1.007932 3.072291 2.305651 8.346332 -8.641709 0.8426859 20.78854 8.290723 4.745733 -23.06441 8.07699 6.598011 -16.03821 11.30593 88.35279 36.01069 -24.26341 -0 0 11.19537 -11.92946 12.45543 7.067579 6.215551 -21.64563 -3.321539 -90.47379 33.03225 17.52104 0 0 -26.66318 -3.208065 13.56178 19.53309
1.539671 108.7005 31.15115 -2.778581 3.767332 3.142661 7.691096 -33.97064 3.275504 -0 14.79381 -0 -8.67056 -4.136814 -2.128911 -3.503431 15.19254 -17.0743 -0 21.3999 -0 -7.862959 -20.89636 10.50056 -1.161095 -0.8682691 3.081868 2.315312 8.583792 -8.697789 0.7464138 20.72567 8.291592 4.723594 -22.75391 7.86046 6.512653 -15.87084 11.39342 88.48301 35.92359 -24.22238 -0 0 10.74019 -13.34707 13.08325 7.78511 6.104593 -21.8443 -3.498552 -89.52636 31.77712 16.54354 0 0 -26.62273 -2.841219 13.00943 18.88526
1.552837 109.5567 36.71834 -2.794007 2.537016 3.340599 7.433927 -29.64826 2.603462 -0 14.62731 -0 -8.441981 -5.042691 -2.79999 -2.887615 14.36971 -15.2957 -0 28.58965 -0 -11.57927 -17.27685 8.089091 -1.227456 -0.6860548 3.117082 2.317306 8.821773 -8.688557 0.6527272 20.77202 8.237021 4.642537 -22.40876 7.621027 6.417853 -15.75427 11.50246 88.46789 35.81428 -23.91212 -0 0 10.37942 -14.91015 13.69317 8.596095 5.854114 -21.89691 -3.68082 -88.78419 30.58307 15.84263 0 0 -26.18555 -2.650471 12.50048 18.42177
1.431776 110.6524 42.88363 -2.0348 -0.1728059 3.198576 6.5756 -24.01417 2.910322 -0 15.9863 -0 -6.824862 -6.589094 -5.158313 -2.567188 14.52351 -12.61756 -0 37.04459 -0 -12.72156 -12.62457 7.82289 -1.347206 -0.4818903 3.196393 2.311823 9.052937 -8.605008 0.5748987 20.89985 8.129746 4.510089 -22.06979 7.384817 6.338503 -15.71061 11.63122 88.24211 35.69135 -23.29556 -0 0 10.16876 -16.47831 14.21661 9.458194 5.493031 -21.78689 -3.838973 -88.26365 29.49453 15.44754 0 0 -25.40045 -2.562374 12.0227 18.08024
1.16548 112.332 49.46201 -1.047233 -4.048988 2.712115 5.851583 -17.94535 3.963685 -0 19.45327 -0 -5.620624 -8.020537 -7.754088 -2.689101 14.72264 -10.29757 -0 47.96146 -0 -10.86866 -7.955671 10.05233 -1.508833 -0.2796335 3.332829 2.304404 9.291718 -8.464635 0.520037 21.04307 7.978398 4.342193 -21.75856 7.162382 6.287897 -15.73172 11.77826 87.79476 35.51053 -22.41506 -0 0 10.10566 -17.9556 14.60734 10.35087 5.081739 -21.55539 -3.958592 -87.86795 28.42627 15.23913 0 0 -24.42595 -2.423891 11.48073 17.68994
0.8896041 114.9339 55.78231 -0.5392496 -6.770934 1.939646 5.801572 -11.55439 4.545012 -0 22.34549 -0 -6.275112 -9.136826 -7.885096 -2.992081 10.5883 -9.672972 -0 59.83996 -0 -8.511689 -4.511119 12.72274 -1.702571 -0.08274049 3.552757 2.283082 9.570196 -8.268247 0.4909057 21.16311 7.776504 4.14231 -21.44709 6.939407 6.25178 -15.82334 11.9475 87.12206 35.18754 -21.26139 -0 0 10.20889 -19.37374 14.84907 11.2983 4.645544 -21.22848 -4.046374 -87.52171 27.25684 15.14426 0 0 -23.31371 -2.14322 10.76473 17.13763
0.7980398 117.9591 61.34585 -0.3462678 -5.89676 1.151864 5.820466 -5.976896 3.583019 -0 19.27649 -0 -7.543534 -9.690804 -4.689769 -3.096056 -0.1459164 -9.724023 -0 65.91788 -0 -8.243013 -3.821619 13.17182 -1.916736 0.1129788 3.91246 2.169375 9.898872 -7.957872 0.4992525 21.27576 7.532292 3.925508 -21.05427 6.718779 6.178297 -16.06257 12.11889 86.22101 34.7198 -19.7309 -0 0 10.63222 -20.8966 14.99995 12.31259 4.201086 -20.79513 -4.105903 -87.30184 26.04024 15.31998 0 0 -21.99229 -1.805787 9.895943 16.5566
0.9221814 120.3435 66.53023 -0.004754395 -3.614632 0.5584805 5.428197 -1.271466 2.512413 -0 12.48979 -0 -6.689711 -10.38089 -1.448331 -2.376651 -12.34959 -8.214484 -0 62.01303 -0 -9.026903 -5.031472 12.80636 -2.136274 0.2859695 4.457327 1.856999 10.21781 -7.451207 0.5672635 21.41009 7.305767 3.740964 -20.5244 6.562577 6.036429 -16.54636 12.2361 85.06487 34.288 -17.72233 -0 0 11.59997 -22.68885 15.22034 13.35486 3.811351 -20.23407 -4.102396 -87.38667 25.05649 16.0387 0 0 -20.44419 -1.608358 9.086938 16.26652
1.147695 121.6044 71.85839 0.4081239 -3.975957 0.02848866 4.919328 3.853345 3.105995 -0 9.614684 -0 -3.696641 -12.05997 -1.339253 -0.8948768 -19.17972 -5.710964 -0 52.83719 -0 -8.484567 -6.045162 14.70412 -2.345642 0.3914982 5.178605 1.333914 10.42848 -6.732228 0.7051275 21.54931 7.169188 3.630644 -19.93682 6.552509 5.844632 -17.29156 12.26008 83.59516 34.11185 -15.23729 -0 0 13.17456 -24.74368 15.646 14.37654 3.546925 -19.55248 -3.971512 -87.86521 24.48652 17.39475 0 0 -18.8062 -1.598027 8.557677 16.37073
1.448806 122.1036 77.39035 0.5729337 -5.553973 -0.5304061 4.502666 8.490562 3.825422 -0 9.864037 -0 -1.676308 -13.78098 -2.19473 0.3807597 -22.01864 -4.101048 -0 43.42059 -0 -7.297638 -6.572891 17.13668 -2.508707 0.4004963 6.032238 0.6823035 10.4959 -5.875624 0.9030001 21.62948 7.144316 3.590939 -19.43007 6.717779 5.600262 -18.23782 12.19972 81.85635 34.17692 -12.43716 -0 0 15.20394 -26.90433 16.27262 15.33588 3.436035 -18.82035 -3.691954 -88.65641 24.20164 19.22617 0 0 -17.29774 -1.622595 8.327864 16.64784
